<svg width="62" height="40" viewBox="0 0 62 40" fill="none" xmlns="http://www.w3.org/2000/svg">
<path d="M16.6924 16.7646C16.6924 14.0032 18.931 11.7646 21.6924 11.7646H40.3078C43.0692 11.7646 45.3078 14.0032 45.3078 16.7646V35.4692C45.3078 37.9714 43.2793 39.9999 40.777 39.9999C38.2747 39.9999 36.2462 37.9714 36.2462 35.4692V32.7647C36.2462 30.0032 34 27.7646 31.2385 27.7646C28.4771 27.7646 26.2308 30.0032 26.2308 32.7646V35.2307C26.2308 37.8647 24.0956 39.9999 21.4616 39.9999C18.8276 39.9999 16.6924 37.8647 16.6924 35.2307V16.7646Z" fill="black"/>
<path d="M30.3504 0.555133C30.7245 0.235453 31.2755 0.235454 31.6496 0.555134L55.7869 21.1809C56.4933 21.7846 56.0664 22.9412 55.1372 22.9412H6.86276C5.93361 22.9412 5.50674 21.7846 6.21312 21.1809L30.3504 0.555133Z" fill="black"/>
</svg>
