<svg width="24" height="24" viewBox="0 0 24 24" fill="none" xmlns="http://www.w3.org/2000/svg">
<path d="M8.368 4.79005L5.632 3.87705C5.33133 3.77691 5.01118 3.74964 4.69791 3.79751C4.38464 3.84538 4.08723 3.967 3.83019 4.15236C3.57315 4.33772 3.36383 4.58151 3.21949 4.86363C3.07516 5.14576 2.99992 5.45814 3 5.77505V17.558C2.9999 17.978 3.13198 18.3873 3.37752 18.7279C3.62305 19.0686 3.96959 19.3233 4.368 19.456L8.368 20.789C8.77825 20.9257 9.22175 20.9257 9.632 20.789L14.368 19.211C14.7783 19.0744 15.2217 19.0744 15.632 19.211L18.368 20.123C18.6687 20.2232 18.989 20.2505 19.3023 20.2025C19.6157 20.1546 19.9132 20.0329 20.1702 19.8474C20.4273 19.662 20.6366 19.418 20.7808 19.1358C20.9251 18.8535 21.0002 18.541 21 18.224V6.44205C21.0002 6.02224 20.8682 5.61302 20.6229 5.27237C20.3775 4.93172 20.0312 4.67692 19.633 4.54405L15.633 3.21105C15.2224 3.07418 14.7786 3.07418 14.368 3.21105L9.631 4.78905C9.22074 4.92569 8.77725 4.92569 8.367 4.78905L8.368 4.79005Z" stroke="black" stroke-width="2" stroke-linecap="round" stroke-linejoin="round"/>
<path d="M9 5V21" stroke="black" stroke-width="2" stroke-linejoin="round"/>
<path d="M15 3V19" stroke="black" stroke-width="2" stroke-linejoin="round"/>
</svg>
