<svg width="31" height="32" viewBox="0 0 31 32" fill="none" xmlns="http://www.w3.org/2000/svg">
<path d="M26.8102 7.19375L23.586 3.86875C23.3586 3.63295 23.0883 3.44586 22.7906 3.31822C22.4929 3.19058 22.1737 3.12492 21.8514 3.125C21.1944 3.125 20.5769 3.39063 20.1137 3.86875L16.6443 7.45C16.4159 7.68477 16.2347 7.96382 16.111 8.27111C15.9874 8.5784 15.9238 8.90788 15.9238 9.24063C15.9238 9.91875 16.1812 10.5563 16.6443 11.0344L19.1813 13.6531C18.5874 15.0043 17.7618 16.2334 16.7442 17.2812C15.7292 18.3342 14.5386 19.1895 13.2295 19.8062L10.6926 17.1875C10.4651 16.9517 10.1948 16.7646 9.89713 16.637C9.59945 16.5093 9.28026 16.4437 8.95791 16.4438C8.30098 16.4438 7.6834 16.7094 7.22022 17.1875L3.74785 20.7656C3.51914 21.0008 3.33774 21.2804 3.21409 21.5882C3.09043 21.8961 3.02697 22.2261 3.02735 22.5594C3.02735 23.2375 3.28467 23.875 3.74785 24.3531L6.96592 27.675C7.70459 28.4406 8.72481 28.875 9.77227 28.875C9.99326 28.875 10.2052 28.8563 10.4141 28.8188C14.4949 28.125 18.5425 25.8844 21.809 22.5156C25.0725 19.15 27.24 14.975 27.9212 10.75C28.1271 9.45938 27.7123 8.13125 26.8102 7.19375V7.19375Z" fill="black"/>
</svg>
